<svg width="33" height="33" viewBox="0 0 33 33" fill="none" xmlns="http://www.w3.org/2000/svg">
<path fill-rule="evenodd" clip-rule="evenodd" d="M12.7875 15.6179C12.3771 16.0275 12.3771 16.695 12.7875 17.1111L15.4488 19.7812V32.7258C11.5627 31.6325 8.45569 24.5863 8.45569 16.3629C8.45569 8.14275 11.5659 1.09323 15.4488 7.62939e-06V12.9478L12.7875 15.6179ZM10.7867 0.868431C8.07875 4.18447 6.32824 9.82076 6.32824 16.34C6.32824 22.8593 8.07875 28.4956 10.7867 31.8116C4.49392 29.4849 0 23.4265 0 16.34C0 9.25681 4.49392 3.20158 10.7867 0.868431ZM22.259 0.868431C28.2302 3.08624 32.5813 8.67112 33 15.3116H26.6939C26.52 9.22638 24.8195 4.00629 22.259 0.868431ZM33 17.4141H26.6971C26.52 23.4769 24.8195 28.6837 22.259 31.8116C28.2302 29.6041 32.5813 24.0336 33 17.4141ZM24.5901 15.3116C24.3345 7.551 21.3068 1.04509 17.5513 1.14441e-05V12.9506L19.9256 15.3116H24.5901ZM19.9299 17.4141H24.59C24.3376 25.178 21.3053 31.6807 17.5513 32.7258V19.7785L19.9299 17.4141Z" fill="url(#paint0_linear)"/>
<defs>
<linearGradient id="paint0_linear" x1="33" y1="16.0001" x2="7.11763e-07" y2="16.0001" gradientUnits="userSpaceOnUse">
<stop stop-color="#AD01FF"/>
<stop offset="1" stop-color="#3122FB"/>
</linearGradient>
</defs>
</svg>
