<svg width="17" height="17" viewBox="0 0 17 17" fill="none" xmlns="http://www.w3.org/2000/svg">
<path d="M5.57812 0C2.3069 1.31272 0 4.47646 0 8.1746C0 13.0485 4.00362 17 8.94493 17C11.8994 17 14.5207 15.5851 16.15 13.4075C15.11 13.8248 13.9686 14.0582 12.7766 14.0582C7.83525 14.0582 3.83165 10.1067 3.83165 5.23281C3.83165 3.27305 4.48245 1.46451 5.57812 0ZM8.83868 2.5035L8.24767 3.62578L6.92618 3.80506L7.88243 4.675L7.65665 5.9035L8.83868 5.32578L10.0207 5.9035L9.79492 4.675L10.7512 3.80506L9.42968 3.62578L8.83868 2.5035ZM11.7937 7.52381L11.0699 8.92499L9.45624 9.15077L10.625 10.2398L10.3461 11.7738L11.7937 11.05L13.2348 11.7738L12.9625 10.2398L14.1312 9.15077L12.5176 8.92499L11.7937 7.52381Z" fill="#949191"/>
</svg>
