<svg width="22" height="22" viewBox="0 0 22 22" fill="none" xmlns="http://www.w3.org/2000/svg">
<path d="M11 17.1875C7.5882 17.1875 4.8125 14.4118 4.8125 11C4.8125 7.5882 7.5882 4.8125 11 4.8125C14.4118 4.8125 17.1875 7.5882 17.1875 11C17.1875 14.4118 14.4118 17.1875 11 17.1875ZM11 6.1875C8.34638 6.1875 6.1875 8.34638 6.1875 11C6.1875 13.6536 8.34638 15.8125 11 15.8125C13.6536 15.8125 15.8125 13.6536 15.8125 11C15.8125 8.34638 13.6536 6.1875 11 6.1875Z" fill="#7F7F7F"/>
<path d="M11 3.4375C10.6203 3.4375 10.3125 3.12967 10.3125 2.75V0.6875C10.3125 0.307828 10.6203 0 11 0C11.3797 0 11.6875 0.307828 11.6875 0.6875V2.75C11.6875 3.12967 11.3797 3.4375 11 3.4375Z" fill="#7F7F7F"/>
<path d="M11 22C10.6203 22 10.3125 21.6922 10.3125 21.3125V19.25C10.3125 18.8703 10.6203 18.5625 11 18.5625C11.3797 18.5625 11.6875 18.8703 11.6875 19.25V21.3125C11.6875 21.6922 11.3797 22 11 22Z" fill="#7F7F7F"/>
<path d="M21.3125 11.6875H19.25C18.8703 11.6875 18.5625 11.3797 18.5625 11C18.5625 10.6203 18.8703 10.3125 19.25 10.3125H21.3125C21.6922 10.3125 22 10.6203 22 11C22 11.3797 21.6922 11.6875 21.3125 11.6875Z" fill="#7F7F7F"/>
<path d="M2.75 11.6875H0.6875C0.307785 11.6875 0 11.3797 0 11C0 10.6203 0.307785 10.3125 0.6875 10.3125H2.75C3.12971 10.3125 3.4375 10.6203 3.4375 11C3.4375 11.3797 3.12971 11.6875 2.75 11.6875Z" fill="#7F7F7F"/>
<path d="M16.8338 5.8538C16.2268 5.8538 15.9133 5.11448 16.3477 4.68016L17.8061 3.22175C18.0746 2.95328 18.5099 2.95324 18.7783 3.22175C19.0468 3.49022 19.0468 3.92554 18.7783 4.19401L17.3199 5.65241C17.1856 5.78669 17.0097 5.8538 16.8338 5.8538Z" fill="#7F7F7F"/>
<path d="M3.70778 18.9795C3.10081 18.9795 2.78731 18.2402 3.22168 17.8059L4.68008 16.3475C4.94863 16.079 5.38395 16.079 5.65233 16.3475C5.92085 16.6159 5.92085 17.0513 5.65233 17.3197L4.19389 18.7782C4.05965 18.9124 3.88374 18.9795 3.70778 18.9795Z" fill="#7F7F7F"/>
<path d="M18.2914 18.9795C18.1154 18.9795 17.9395 18.9124 17.8053 18.7782L16.3469 17.3198C16.0784 17.0512 16.0784 16.616 16.3469 16.3475C16.6154 16.079 17.0507 16.079 17.3191 16.3475L18.7775 17.8059C19.2119 18.2401 18.8984 18.9795 18.2914 18.9795Z" fill="#7F7F7F"/>
<path d="M5.16644 5.8539C4.99049 5.8539 4.81457 5.78678 4.68034 5.65255L3.22189 4.19415C2.95338 3.92563 2.95338 3.49036 3.22189 3.22189C3.49036 2.95338 3.92568 2.95338 4.19415 3.22189L5.65255 4.68029C6.08692 5.11458 5.77342 5.8539 5.16644 5.8539Z" fill="#7F7F7F"/>
</svg>
