<svg width="16" height="15" viewBox="0 0 16 15" fill="none" xmlns="http://www.w3.org/2000/svg">
<path d="M1.56098 0C0.702946 0 0 0.702946 0 1.56098V12.6829C0 13.4329 0.615922 14.0488 1.36585 14.0488H14.6341C15.3841 14.0488 16 13.4329 16 12.6829V3.70732C16 2.95739 15.3841 2.34146 14.6341 2.34146H13.6585V0.390244C13.6585 0.185912 13.4726 1.95122e-05 13.2683 0H1.56098ZM1.56098 0.780488H12.878V2.34146H1.56098C1.12183 2.34146 0.780488 2.00012 0.780488 1.56098C0.780488 1.12183 1.12183 0.780488 1.56098 0.780488ZM0.780488 2.90852C1.01052 3.0425 1.27719 3.12195 1.56098 3.12195C5.95592 3.11805 10.8567 3.12195 14.6341 3.12195C14.9652 3.12195 15.2195 3.37627 15.2195 3.70732V6.04878H9.56098C9.02724 6.04878 8.58537 6.49065 8.58537 7.02439V9.36585C8.58537 9.89959 9.02724 10.3415 9.56098 10.3415H15.2195V12.6829C15.2195 13.014 14.9652 13.2683 14.6341 13.2683H1.36585C1.03481 13.2683 0.780488 13.014 0.780488 12.6829V2.90852ZM9.56098 6.82927H15.2195V9.56098H9.56098C9.44613 9.56098 9.36585 9.4807 9.36585 9.36585V7.02439C9.36585 6.90954 9.44613 6.82903 9.56098 6.82927ZM11.5122 7.41463C11.0812 7.41463 10.7317 7.76408 10.7317 8.19512C10.7317 8.62619 11.0812 8.97561 11.5122 8.97561C11.9432 8.97561 12.2927 8.62619 12.2927 8.19512C12.2927 7.76408 11.9432 7.41463 11.5122 7.41463Z" fill="#D0D0D0"/>
</svg>
